<svg id="Layer_1" data-name="Layer 1" xmlns="http://www.w3.org/2000/svg" xmlns:xlink="http://www.w3.org/1999/xlink" viewBox="0 0 80.92 73.6"><defs><style>.cls-1{fill:#e5cd65;}.cls-2{fill:#0e2d63;}.cls-3{fill:#e53c3c;}.cls-4{fill:url(#linear-gradient);}</style><linearGradient id="linear-gradient" x1="118.72" y1="100.29" x2="129.87" y2="129.35" gradientUnits="userSpaceOnUse"><stop offset="0" stop-color="#d1bb5e"/><stop offset="0.1" stop-color="#ccb75c"/><stop offset="0.23" stop-color="#bda955"/><stop offset="0.36" stop-color="#a5944a"/><stop offset="0.5" stop-color="#84763b"/><stop offset="0.65" stop-color="#584f28"/><stop offset="0.8" stop-color="#242010"/><stop offset="0.89"/></linearGradient></defs><title>hat</title><path class="cls-1" d="M99,131.51l6.64,22.6s4.59,9.78,24.88,5.63,28.59-17.51,27.85-28.23l-5.56-22.34Z" transform="translate(-85.04 -87.16)"/><path class="cls-2" d="M157.29,127.52l-2.35-9.45c-2.08,7.08-7.23,14.33-18.33,19.43-21.15,9.73-31.77,3-36.09-1.68l4.18,14.24s4.58,9.75,24.82,5.61S158,138.21,157.29,127.52Z" transform="translate(-85.04 -87.16)"/><path class="cls-3" d="M155.75,121.34c-2.48,10.12-7.78,17.81-22.69,23.7-15.23,6-25.59,1.32-30.42-2l1.68,5.73c7.09,4.59,20.78,7,35.69-.82,10.05-5.28,14.77-13.89,16.9-21.94Z" transform="translate(-85.04 -87.16)"/><path class="cls-1" d="M86,131c4.65,11.8,27.17,14.71,43,11,16.44-3.85,30.17-15.9,35-30,1.25-3.64,3.45-10.07.46-15.6-4.34-8-16.77-8.81-22.18-9.15-7.58-.49-13.66,1.16-18.68,2.52A69.34,69.34,0,0,0,110,95a64.34,64.34,0,0,0-12,8c-5.19,4.44-8.83,7.54-11,13C86.57,117.09,83.53,124.72,86,131Z" transform="translate(-85.04 -87.16)"/><path class="cls-4" d="M103.52,132s16.69,5.32,34.12-7.39,18-21.12,7-26-31.17,1.62-40.18,9.89S94.07,128.64,103.52,132Z" transform="translate(-85.04 -87.16)"/></svg>